<?xml version="1.0" standalone="no"?><!DOCTYPE svg PUBLIC "-//W3C//DTD SVG 1.1//EN" "http://www.w3.org/Graphics/SVG/1.1/DTD/svg11.dtd"><svg t="1593349470309" class="icon" viewBox="0 0 1024 1024" version="1.1" xmlns="http://www.w3.org/2000/svg" p-id="2564" xmlns:xlink="http://www.w3.org/1999/xlink" width="200" height="200"><defs><style type="text/css"></style></defs><path d="M438.45632 340.25472a20.48 20.48 0 1 0-11.03872-39.424c-115.75296 32.37888-196.62848 141.74208-196.62848 265.99424 0 151.92064 119.43936 275.51744 266.24 275.51744s266.24-123.5968 266.24-275.51744c0-124.25216-80.85504-233.65632-196.64896-265.99424a20.48 20.48 0 0 0-11.03872 39.44448c98.16064 27.4432 166.72768 120.60672 166.72768 226.57024 0 129.3312-101.0688 234.55744-225.28 234.55744s-225.28-105.22624-225.28-234.55744c0.02048-105.984 68.54656-199.12704 166.7072-226.59072z" fill="#231F20" p-id="2565"></path><path d="M517.5296 504.48384V207.44192a20.48 20.48 0 1 0-40.96 0v297.04192a20.48 20.48 0 1 0 40.96 0z" fill="#231F20" p-id="2566"></path></svg>